<svg xmlns="http://www.w3.org/2000/svg" enable-background="new 0 0 50 50" viewBox="0 0 50 50" id="sword-with-shield"><ellipse cx="2.204" cy="3.796" fill="#444445" rx=".624" ry="1.378" transform="rotate(-134.999 2.204 3.796)"></ellipse><ellipse cx="47.796" cy="3.796" fill="#444445" rx=".624" ry="1.378" transform="rotate(-45.001 47.796 3.797)"></ellipse><path fill="#C7C7C7" d="M42.2403,12.8961c0,0-1.1636,0.6972-1.3528,1.2378l-2.9827-3.3475c0,0,0.7798-0.5451,0.917-1.2751
		l0.1823-0.2614l3.3341,3.0457L42.2403,12.8961z"></path><ellipse cx="41.47" cy="10.122" fill="#9D9895" rx=".424" ry="1.274" transform="rotate(-45.001 41.47 10.123)"></ellipse><ellipse cx="41.988" cy="9.604" fill="#9D9895" rx=".424" ry="1.274" transform="rotate(-45.001 41.988 9.604)"></ellipse><ellipse cx="42.507" cy="9.085" fill="#9D9895" rx=".424" ry="1.274" transform="rotate(-45.001 42.507 9.086)"></ellipse><ellipse cx="43.025" cy="8.567" fill="#9D9895" rx=".424" ry="1.274" transform="rotate(-45.001 43.025 8.568)"></ellipse><ellipse cx="43.543" cy="8.049" fill="#9D9895" rx=".424" ry="1.274" transform="rotate(-45.001 43.543 8.05)"></ellipse><ellipse cx="44.062" cy="7.53" fill="#9D9895" rx=".424" ry="1.274" transform="rotate(-45.001 44.062 7.531)"></ellipse><ellipse cx="44.58" cy="7.012" fill="#9D9895" rx=".424" ry="1.274" transform="rotate(-45.001 44.58 7.013)"></ellipse><ellipse cx="45.098" cy="6.494" fill="#9D9895" rx=".424" ry="1.274" transform="rotate(-45.001 45.098 6.494)"></ellipse><ellipse cx="45.617" cy="5.976" fill="#9D9895" rx=".424" ry="1.274" transform="rotate(-45.001 45.617 5.976)"></ellipse><ellipse cx="46.135" cy="5.457" fill="#9D9895" rx=".424" ry="1.274" transform="rotate(-45.001 46.135 5.458)"></ellipse><ellipse cx="46.653" cy="4.939" fill="#9D9895" rx=".424" ry="1.274" transform="rotate(-45.001 46.653 4.94)"></ellipse><path fill="#C7C7C7" d="M46.7081,2.7086l2.1733,2.1733c0.1582,0.1582,0.1582,0.4149,0,0.5731l-0.3647,0.3647
		c-0.1563,0.1563-0.4131,0.1563-0.5712-0.0019l-2.1733-2.1733c-0.1563-0.1563-0.1563-0.4131,0-0.5694l0.3647-0.3647
		C46.295,2.5523,46.5518,2.5523,46.7081,2.7086z"></path><path fill="#444445" d="M45.9338,14.5052l-0.3603,1.0354l-1.1111,0.333l-0.3421-1.2413l-1.8801-1.7378l-0.7841-0.772
		c0,0-1.6954,0.3512-1.9013-1.7772L38.822,9.5128l-2.0375-1.977l-1.1656-0.2301l0.2604-1.1353l1.0112-0.4723l0.4814,1.1747
		l3.0336,2.6612c1.7499-0.0666,1.8619,1.9104,1.8619,1.9104c0.5843,1.1051,2.5977,2.746,2.5977,2.746L45.9338,14.5052z"></path><circle cx="40.896" cy="10.845" r=".566" fill="#E4E4E3"></circle><path fill="#EFEFED" d="M45.6279,47.0938c0.1213,0.188-0.1051,0.4051-0.2871,0.2751c-1.9619-1.4021-6.9665-5.037-8.0401-6.3883
		c-1.3425-1.6897,2.2618-2.0733,2.2618-2.0733S43.8693,44.3677,45.6279,47.0938z"></path><path fill="#C7C7C7" d="M45.3408,47.3689c0,0-0.5698-0.3077-1.3857-0.8265c-0.8152-0.5192-1.8831-1.2404-2.9052-2.0251
			c-1.0263-0.7787-2.0036-1.6251-2.6946-2.3081c-0.7024-0.6747-1.0545-1.2286-1.0545-1.2286s0.4689,0.4422,1.2397,1.0167
			c0.7672,0.579,1.79,1.351,2.8129,2.123c1.0207,0.7763,2.0219,1.5814,2.7666,2.1953
			C44.8635,46.9311,45.3408,47.3689,45.3408,47.3689z"></path><path fill="#EFEFED" d="M4.9492,47.0938c-0.1213,0.188,0.1051,0.4051,0.2871,0.2751c1.9619-1.4021,6.9665-5.037,8.0401-6.3883
		c1.3425-1.6897-2.2618-2.0733-2.2618-2.0733S6.7079,44.3677,4.9492,47.0938z"></path><path fill="#C7C7C7" d="M5.2364 47.3689c0 0 .4773-.4378 1.2209-1.0532.7448-.614 1.746-1.419 2.7666-2.1953 1.0229-.772 2.0457-1.544 2.8129-2.123.7708-.5745 1.2397-1.0167 1.2397-1.0167s-.3521.5539-1.0545 1.2286c-.691.683-1.6683 1.5294-2.6946 2.3081-1.0222.7846-2.09 1.5058-2.9053 2.0251C5.8062 47.0612 5.2364 47.3689 5.2364 47.3689zM7.7597 12.8961c0 0 1.1636.6972 1.3528 1.2378l2.9827-3.3475c0 0-.7798-.5451-.917-1.2751l-.1823-.2614-3.3341 3.0457L7.7597 12.8961z"></path><ellipse cx="8.53" cy="10.122" fill="#9D9895" rx=".424" ry="1.274" transform="rotate(-134.999 8.53 10.122)"></ellipse><ellipse cx="8.012" cy="9.604" fill="#9D9895" rx=".424" ry="1.274" transform="rotate(-134.999 8.012 9.604)"></ellipse><ellipse cx="7.493" cy="9.085" fill="#9D9895" rx=".424" ry="1.274" transform="rotate(-134.999 7.493 9.086)"></ellipse><ellipse cx="6.975" cy="8.567" fill="#9D9895" rx=".424" ry="1.274" transform="rotate(-134.999 6.975 8.567)"></ellipse><ellipse cx="6.457" cy="8.049" fill="#9D9895" rx=".424" ry="1.274" transform="rotate(-134.999 6.457 8.049)"></ellipse><ellipse cx="5.938" cy="7.53" fill="#9D9895" rx=".424" ry="1.274" transform="rotate(-134.999 5.938 7.53)"></ellipse><ellipse cx="5.42" cy="7.012" fill="#9D9895" rx=".424" ry="1.274" transform="rotate(-134.999 5.42 7.012)"></ellipse><ellipse cx="4.902" cy="6.494" fill="#9D9895" rx=".424" ry="1.274" transform="rotate(-134.999 4.902 6.494)"></ellipse><ellipse cx="4.383" cy="5.976" fill="#9D9895" rx=".424" ry="1.274" transform="rotate(-134.999 4.383 5.976)"></ellipse><ellipse cx="3.865" cy="5.457" fill="#9D9895" rx=".424" ry="1.274" transform="rotate(-134.999 3.865 5.457)"></ellipse><ellipse cx="3.347" cy="4.939" fill="#9D9895" rx=".424" ry="1.274" transform="rotate(-134.999 3.347 4.939)"></ellipse><path fill="#C7C7C7" d="M3.2919,2.7086L1.1186,4.8819c-0.1582,0.1582-0.1582,0.4149,0,0.5731l0.3647,0.3647
		C1.6396,5.976,1.8964,5.976,2.0545,5.8178l2.1733-2.1733c0.1563-0.1563,0.1563-0.4131,0-0.5694L3.8631,2.7104
		C3.705,2.5523,3.4482,2.5523,3.2919,2.7086z"></path><path fill="#444445" d="M4.0662,14.5052l0.3603,1.0354l1.1111,0.333l0.3421-1.2413l1.8801-1.7378l0.7841-0.772
		c0,0,1.6954,0.3512,1.9013-1.7772l0.7327-0.8326l2.0375-1.977l1.1656-0.2301l-0.2604-1.1353L13.1096,5.698l-0.4814,1.1747
		L9.5946,9.5339c-1.7499-0.0666-1.8619,1.9104-1.8619,1.9104c-0.5843,1.1051-2.5977,2.746-2.5977,2.746L4.0662,14.5052z"></path><circle cx="9.104" cy="10.845" r=".566" fill="#E4E4E3"></circle><path fill="#696967" d="M44.7284,25.4062c0,10.85-8.8,19.64-19.65,19.64c-10.86,0-19.65-8.79-19.65-19.64
		c0-10.86,8.79-19.65,19.65-19.65C35.9284,5.7561,44.7284,14.5461,44.7284,25.4062z"></path><path fill="none" stroke="#444445" stroke-miterlimit="10" stroke-width=".5" d="M44.7284,25.4062c0,10.85-8.8,19.64-19.65,19.64
		c-10.86,0-19.65-8.79-19.65-19.64c0-10.86,8.79-19.65,19.65-19.65C35.9284,5.7561,44.7284,14.5461,44.7284,25.4062z"></path><path fill="#7C7C7B" d="M39.8553,25.4041c0,8.1624-6.616,14.7783-14.7784,14.7783c-8.1647,0-14.7806-6.616-14.7806-14.7783
		c0-8.1647,6.616-14.7806,14.7806-14.7806C33.2393,10.6235,39.8553,17.2394,39.8553,25.4041z"></path><circle cx="25.076" cy="25.403" r="6.1" fill="#444445"></circle><circle cx="25.076" cy="25.403" r="3.873" fill="#696967"></circle><path fill="#7C7C7B" d="M9.0184 25.4861c0 .69-.55 1.24-1.24 1.24-.68 0-1.23-.55-1.23-1.24 0-.68.55-1.23 1.23-1.23C8.4684 24.2561 9.0184 24.8061 9.0184 25.4861zM26.3184 8.1961c0 .68-.5601 1.24-1.2401 1.24s-1.24-.56-1.24-1.24.56-1.24 1.24-1.24S26.3184 7.5162 26.3184 8.1961zM17.4984 41.0862c-.34.59-1.09.8-1.69.46-.59-.35-.79-1.1-.45-1.7.34-.59 1.1-.79 1.69-.45C17.6384 39.7361 17.8484 40.4961 17.4984 41.0862zM38.9884 17.4662c-.35-.6-.14-1.35.45-1.7.59-.34 1.35-.13 1.69.46.34.59.14 1.35-.45 1.69C40.0884 18.2561 39.3284 18.0561 38.9884 17.4662zM41.1284 34.7561c-.34.59-1.1.8-1.69.45-.59-.34-.8-1.09-.45-1.69.34-.59 1.1-.79 1.69-.45C41.2684 33.4062 41.4684 34.1661 41.1284 34.7561zM17.4984 9.8962c.35.59.14 1.35-.45 1.69-.59.34-1.35.14-1.69-.45-.34-.6-.14-1.35.45-1.7C16.4084 9.0962 17.1584 9.2961 17.4984 9.8962zM11.1684 33.5162c.35.6.14 1.35-.45 1.69-.59.35-1.35.14-1.69-.45-.34-.59-.14-1.35.45-1.69S10.8284 32.9261 11.1684 33.5162zM26.3184 42.7861c0 .6801-.5601 1.2401-1.2401 1.2401s-1.24-.56-1.24-1.2401c0-.68.56-1.24 1.24-1.24S26.3184 42.1061 26.3184 42.7861zM11.1684 17.4662c-.34.59-1.1.79-1.69.45-.59-.34-.79-1.1-.45-1.69.34-.59 1.1-.8 1.69-.46C11.3084 16.1161 11.5184 16.8661 11.1684 17.4662zM34.7984 39.8462c.34.6.14 1.35-.45 1.7-.6.34-1.35.13-1.69-.46-.35-.59-.14-1.35.45-1.69C33.6983 39.0561 34.4584 39.2561 34.7984 39.8462zM34.7984 11.1361c-.34.59-1.1.79-1.69.45-.59-.34-.8-1.1-.45-1.69.34-.6 1.09-.8 1.69-.46C34.9384 9.7861 35.1384 10.5361 34.7984 11.1361zM43.6084 25.4861c0 .69-.55 1.24-1.23 1.24-.69 0-1.2401-.55-1.2401-1.24 0-.68.55-1.23 1.2401-1.23C43.0584 24.2561 43.6084 24.8061 43.6084 25.4861z"></path><g><path fill="#7C7C7B" d="M21.1484 27.7662c.17.29.07.67-.23.84-.1.06-.2.08-.31.08-.21 0-.42-.11-.54-.3-.17-.3-.07-.68.23-.85C20.5984 27.3661 20.9784 27.4662 21.1484 27.7662zM21.1484 23.2162c-.12.2-.33.31-.54.31-.11 0-.21-.02-.31-.08-.3-.17-.4-.55-.23-.85.17-.29.55-.39.85-.22S21.3184 22.9261 21.1484 23.2162zM23.0384 30.2662c-.12.2-.33.31-.54.31-.11 0-.21-.02-.31-.08-.3-.17-.4-.55-.23-.85.17-.29.55-.39.85-.22C23.0984 29.5962 23.2084 29.9761 23.0384 30.2662zM23.0384 20.7062c.17.3.06.68-.23.85-.1.06-.2.08-.31.08-.21 0-.42-.11-.54-.31-.17-.29-.07-.67.23-.84C22.4884 20.3161 22.8684 20.4161 23.0384 20.7062zM19.9184 26.1061c-.34 0-.62-.27-.62-.62 0-.34.28-.61.62-.61.34 0 .62.27.62.61C20.5384 25.8362 20.2583 26.1061 19.9184 26.1061zM25.6983 30.6562c0 .34-.28.62-.62.62-.34 0-.62-.28-.62-.62 0-.35.28-.6201.62-.6201C25.4184 30.0361 25.6983 30.3061 25.6983 30.6562z"></path><circle cx="25.078" cy="20.326" r=".62" fill="#7C7C7B"></circle><path fill="#7C7C7B" d="M30.8584 25.4861c0 .35-.28.62-.62.62-.34 0-.62-.27-.62-.62 0-.34.28-.61.62-.61C30.5784 24.8761 30.8584 25.1462 30.8584 25.4861zM28.1983 21.3262c-.12.2-.33.31-.54.31-.11 0-.21-.02-.31-.08-.29-.17-.4-.55-.23-.85.17-.29.56-.39.85-.22C28.2684 20.6562 28.3684 21.0361 28.1983 21.3262zM28.1983 29.6462c.17.3.07.68-.23.85-.1.06-.2.08-.31.08-.21 0-.42-.11-.54-.31-.17-.29-.06-.67.23-.84C27.6484 29.2561 28.0284 29.3561 28.1983 29.6462zM30.0884 28.3861c-.12.19-.33.3-.54.3-.11 0-.21-.02-.31-.08-.3-.17-.4-.55-.23-.84.17-.3.55-.4.85-.23C30.1584 27.7062 30.2583 28.0862 30.0884 28.3861zM29.0083 23.2162c-.17-.29-.0699-.67.23-.84s.68-.07.85.22c.17.3.07.68-.23.85-.1.06-.2.08-.31.08C29.3384 23.5262 29.1284 23.4161 29.0083 23.2162z"></path></g></svg>