<svg xmlns="http://www.w3.org/2000/svg" viewBox="0 0 64 64" id="m-1-c"><polygon fill="#545c66" points="30.41 25.807 26.87 29.347 20.51 35.707 18.39 33.587 28.29 23.687 30.41 25.807"></polygon><rect width="8.004" height="2.998" x="12.617" y="35.978" fill="#656d78" transform="rotate(-45 16.62 37.477)"></rect><polygon fill="#656d78" points="37.07 20.567 30.41 25.807 28.29 23.687 33.53 17.027 37.07 20.567"></polygon><rect width="8.994" height="2.998" x="20.252" y="32.088" fill="#434a54" transform="rotate(-45 24.75 33.587)"></rect><path fill="#965353" d="M34.65967,30.05724l.7.7-11.32,11.32a1.95944,1.95944,0,0,0-.5,1.95h-.01l1.22,5.83-4.95,3.53-8.19,9.61-7.07-7.07,7.48-7.49h5.66l1.41-1.41a1.98588,1.98588,0,0,0,0-2.83l3.54-6.37,6.36-6.36,13.03-13.02,2.12,2.12Z"></path><path d="M4.53809,56.92578a1,1,0,0,1-.707-1.707l7.48536-7.48535a.99989.99989,0,0,1,1.41406,1.41406L5.24512,56.63281A.99674.99674,0,0,1,4.53809,56.92578Z"></path><path d="M11.60938,63.99707a.9968.9968,0,0,1-.707-.293L3.83105,56.63281a.99989.99989,0,0,1,1.41407-1.41406L12.31641,62.29a1,1,0,0,1-.707,1.707Z"></path><path d="M11.60938,63.99707a1.00006,1.00006,0,0,1-.76075-1.64844L19.041,52.74219a.9996.9996,0,1,1,1.52148,1.29687l-8.19238,9.60645A.99523.99523,0,0,1,11.60938,63.99707Z"></path><path d="M19.80273 54.39063a.99994.99994 0 01-.582-1.81348L24.1709 49.041A.99968.99968 0 0125.333 50.668l-4.9502 3.53613A.99276.99276 0 0119.80273 54.39063zM17.68066 49.44043H12.02344a1 1 0 010-2h5.65722a1 1 0 010 2z"></path><path d="M19.09473,48.02637a1,1,0,0,1-.707-1.707,1.00143,1.00143,0,0,0,0-1.41407.99989.99989,0,1,1,1.41406-1.41406,3.00245,3.00245,0,0,1,0,4.24219A.99676.99676,0,0,1,19.09473,48.02637Z"></path><path d="M17.68066 49.44043a1 1 0 01-.707-1.707l1.41407-1.41406a.99989.99989 0 011.41406 1.41406L18.3877 49.14746A.9968.9968 0 0117.68066 49.44043zM19.09375 45.19824a.9882.9882 0 01-.48437-.126.99867.99867 0 01-.38868-1.35938l3.53516-6.36426a.99974.99974 0 011.74805.97071l-3.53516 6.36425A.99911.99911 0 0119.09375 45.19824z"></path><path d="M22.62988 38.834a1 1 0 01-.707-1.707l19.3877-19.38769a.99989.99989 0 011.41406 1.41406L23.33691 38.541A.99675.99675 0 0122.62988 38.834zM24.751 50.85449a.99985.99985 0 01-.97754-.79492L22.55371 44.2334a.99977.99977 0 111.957-.41016l1.21973 5.82617a1.00075 1.00075 0 01-.97949 1.20508z"></path><path d="M44.13965,21.56738a.99672.99672,0,0,1-.707-.293l-2.12207-2.12109a.99989.99989,0,1,1,1.41406-1.41406l2.12207,2.12109a1,1,0,0,1-.707,1.707Z"></path><path d="M34.65137,31.05566a1,1,0,0,1-.707-1.707l9.48828-9.48828a.99989.99989,0,1,1,1.41406,1.41406L35.3584,30.7627A.99675.99675,0,0,1,34.65137,31.05566Z"></path><path d="M24.04492,43.07715a1,1,0,0,1-.707-1.707L34.65137,30.05566a.99989.99989,0,1,1,1.41406,1.41407L24.752,42.78418A.99676.99676,0,0,1,24.04492,43.07715Z"></path><path d="M35.3584 31.7627a.99676.99676 0 01-.707-.293l-.707-.707a.99989.99989 0 111.41406-1.41407l.707.707a1 1 0 01-.707 1.707zM25.459 46.49121a3.00037 3.00037 0 01-2.12109-5.12207 3.07444 3.07444 0 014.24219 0h0v.001h0a3 3 0 01-2.1211 5.12109zm0-4a.99989.99989 0 00-.707 1.707 1.02258 1.02258 0 001.41407 0 .99847.99847 0 000-1.41308v-.001A.99688.99688 0 0025.459 42.49121zM14.85254 42.37012a.99927.99927 0 01-.707-.293l-2.12207-2.12207a.99963.99963 0 010-1.41406l5.65722-5.65625a.99964.99964 0 011.41407 0l2.12109 2.12109a.99962.99962 0 010 1.41406l-5.65625 5.65723A.99928.99928 0 0114.85254 42.37012zm-.708-3.12207l.708.708 4.24219-4.24316-.707-.707zM30.4082 26.81348a.99756.99756 0 01-.707-.293l-2.12109-2.1211a1.00023 1.00023 0 01-.07813-1.32617l5.24512-6.66015a.99953.99953 0 01.72559-.37891.97479.97479 0 01.7666.291l3.53613 3.53515a1.00015 1.00015 0 01-.08789 1.49219l-6.66016 5.24609A.99438.99438 0 0130.4082 26.81348zm-.78613-3.2002l.86523.86524 5.07813-4-1.94434-1.94336z"></path><path d="M22.62988,38.834a.99675.99675,0,0,1-.707-.293l-2.12109-2.1211a.99962.99962,0,0,1,0-1.41406L26.166,28.6416a.99964.99964,0,0,1,1.41406,0l2.12109,2.1211a.99962.99962,0,0,1,0,1.41406L23.33691,38.541A.99675.99675,0,0,1,22.62988,38.834Zm-.707-3.12109.707.707,4.9502-4.95019-.707-.707Z"></path><path d="M26.87305 30.34863a1 1 0 01-.707-1.707l3.53515-3.53515a.99989.99989 0 111.41406 1.41406l-3.53515 3.53515A.99672.99672 0 0126.87305 30.34863zM18.3877 34.5918a1 1 0 01-.707-1.707l9.89942-9.89942a.99989.99989 0 011.41406 1.41406l-9.89941 9.89942A.9968.9968 0 0118.3877 34.5918zM42.01758 19.44629a1 1 0 01-.707-1.707L58.75488.2959A.99989.99989 0 1160.169 1.71L42.72461 19.15332A.99676.99676 0 0142.01758 19.44629z"></path></svg>