<svg xmlns="http://www.w3.org/2000/svg" enable-background="new 0 0 511.945 511.939" viewBox="0 0 511.945 511.939" id="skull"><path d="M72.434 124.831c1.252-1.252 2.373-2.583 3.435-3.944l17.087 17.087c11.03-18.435 25.088-34.85 41.494-48.554l-13.559-13.559c1.38-1.075 2.726-2.214 3.996-3.483 16.504-16.504 16.554-43.378 0-59.932-16.603-16.603-43.478-16.553-59.982-.05C53.637 23.665 49.997 39.67 54.036 54.08c-14.36-4.089-30.315-.499-41.584 10.769-16.603 16.603-16.603 43.428 0 60.032C29.006 141.434 55.831 141.434 72.434 124.831zM391.047 75.863l-13.619 13.619c16.403 13.713 30.481 30.135 41.539 48.509l17.101-17.101c1.062 1.36 2.185 2.69 3.437 3.942 16.604 16.603 43.428 16.603 60.032 0 16.553-16.554 16.553-43.378-.05-59.982-11.268-11.268-27.323-14.858-41.584-10.769 4.039-14.31.449-30.365-10.869-41.683-16.504-16.504-43.378-16.554-59.932 0-16.604 16.603-16.553 43.478-.05 59.982C388.321 73.647 389.667 74.787 391.047 75.863zM439.555 387.046c-1.269 1.268-2.409 2.615-3.484 3.995l-34.304-34.304c-9.027 10.747-19.272 20.671-30.814 29.462-5.772 4.409-10.62 9.594-14.461 15.311l34.552 34.552c-1.36 1.063-2.689 2.185-3.942 3.437-16.603 16.604-16.603 43.428 0 60.032 16.553 16.554 43.378 16.554 59.982-.05 11.268-11.268 14.858-27.323 10.77-41.583 14.31 4.039 30.365.449 41.683-10.87 16.504-16.504 16.554-43.378 0-59.932C482.933 370.492 456.058 370.542 439.555 387.046zM142.128 387.102c-11.982-8.992-22.689-19.166-32.028-30.294l-34.233 34.233c-1.075-1.379-2.214-2.726-3.483-3.996-16.504-16.504-43.378-16.553-59.932 0-16.603 16.604-16.553 43.478-.05 59.982 11.268 11.268 27.274 14.908 41.683 10.87-4.089 14.36-.499 30.315 10.769 41.583 16.604 16.604 43.428 16.604 60.032 0 16.554-16.553 16.554-43.378-.05-59.982-1.252-1.252-2.583-2.373-3.944-3.435l34.607-34.607C151.882 395.943 147.405 391.049 142.128 387.102z"></path><path d="M364.351,377.534c48.513-36.949,77.635-98.154,69.103-165.634C423.229,130.88,357.441,66.29,276.28,57.335C168.325,45.418,77.011,129.611,77.011,235.168c0,58.596,28.135,110.564,71.641,143.211c17.91,13.397,27.852,34.904,27.852,57.256v20.096c0,15.584,12.622,28.205,28.205,28.205h4.019v-23.551c0-5.5,4.442-9.942,9.942-9.942c5.5,0,9.942,4.442,9.942,9.942v23.551h17.417v-23.551c0-5.5,4.442-9.942,9.942-9.942c5.5,0,9.942,4.442,9.942,9.942v23.551h17.417v-23.551c0-5.5,4.442-9.942,9.942-9.942c5.5,0,9.942,4.442,9.942,9.942v23.551h4.019c15.583,0,28.205-12.622,28.205-28.205v-21.294C335.441,411.944,346.441,391.213,364.351,377.534z M178.348,316.953c-25.939,0-46.91-20.971-46.91-46.91c0-25.881,20.971-46.852,46.91-46.852c25.882,0,56.386,1.801,56.386,27.683C234.734,276.812,204.23,316.953,178.348,316.953z M274.753,392.246l-37.574-0.023c-9.197-0.006-14.707-10.226-9.656-17.913l18.78-28.579c4.567-6.951,14.759-6.951,19.326,0l18.795,28.602C289.477,382.025,283.956,392.251,274.753,392.246z M333.597,316.953c-25.882,0-56.386-40.141-56.386-66.08c0-25.882,30.504-27.683,56.386-27.683c25.939,0,46.91,20.971,46.91,46.852C380.507,295.982,359.536,316.953,333.597,316.953z"></path></svg>