<svg xmlns="http://www.w3.org/2000/svg" enable-background="new 0 0 512 512" viewBox="0 0 512 512" id="wolf"><path fill="#91979C" d="M425.729,25.177L296,108.365l104.169,74.382L436.74,33.039C438.301,26.65,431.266,21.626,425.729,25.177z"></path><polygon fill="#4C4F52" points="399.223 73.94 315.532 122.312 380.638 168.8"></polygon><path fill="#91979C" d="M86.271,25.177L216,108.365l-104.169,74.382L75.26,33.039C73.699,26.65,80.734,21.626,86.271,25.177z"></path><polygon fill="#4C4F52" points="112.777 73.94 196.468 122.312 131.362 168.8"></polygon><path fill="#91979C" d="M256,72L256,72c-92.784,0-168,75.216-168,168v0c0,10.485-2.736,20.788-7.938,29.892L24,368l64-16v96l80-72
	l-8,72l56-32l40,32l40-32l56,32l-8-72l80,72v-96l64,16l-56.062-98.108C426.736,260.788,424,250.485,424,240v0
	C424,147.216,348.784,72,256,72z"></path><path fill="#DEE7EE" d="M376,216v59.69c0,5.61-2.27,10.69-5.95,14.36c-3.67,3.68-8.75,5.95-14.36,5.95
	c-16.13,0-30.05,11.32-33.34,27.11l-27.82,133.56c-3.25,15.57-15.44,27.38-30.53,30.5c-2.59,0.55-5.27,0.83-8,0.83
	s-5.41-0.28-8-0.83c-15.09-3.12-27.28-14.93-30.53-30.5l-27.82-133.56c-1.65-7.89-5.95-14.67-11.85-19.48
	c-5.91-4.8-13.42-7.63-21.49-7.63c-11.22,0-20.31-9.09-20.31-20.31V216h0.02v-0.7c0-28.99,19.83-55.27,49.27-62.23
	c28.56-6.75,57.17,6.8,70.71,31.28c11.2-20.24,32.69-33.01,55.95-33.01c4.87,0,9.81,0.56,14.76,1.73
	c29.68,7.02,49.59,33.66,49.27,62.93H376z"></path><path fill="#C95057" d="M332.615 209.682c7.904 15.807 1.496 35.029-14.311 42.932s-35.029 1.496-42.933-14.311L332.615 209.682zM179.385 209.682c-7.904 15.807-1.496 35.029 14.311 42.932s35.029 1.496 42.932-14.311L179.385 209.682z"></path><path fill="#4C4F52" d="M264,416v71.17c-2.59,0.55-5.27,0.83-8,0.83s-5.41-0.28-8-0.83V416c0-4.42,3.58-8,8-8S264,411.58,264,416z"></path><path fill="#A04045" d="M268,416h-24c-11.046,0-20-8.954-20-20v0c0-11.046,8.954-20,20-20h24c11.046,0,20,8.954,20,20v0
	C288,407.046,279.046,416,268,416z"></path><path d="M494.946,364.031l-56.06-98.11C434.381,258.037,432,249.074,432,240c0-27.204-6.373-54.243-18.421-78.417l30.933-126.646
		c1.491-6.107-0.851-12.413-5.965-16.065c-5.117-3.653-11.842-3.82-17.134-0.427l-94.36,60.497C304.649,69.028,280.769,64,256,64
		c-24.77,0-48.651,5.028-71.053,14.942l-94.36-60.497c-5.294-3.394-12.02-3.224-17.134,0.427c-5.114,3.652-7.456,9.958-5.965,16.066
		l30.933,126.646C86.372,185.758,80,212.796,80,240c0,4.542-0.589,9.049-1.75,13.399c-1.171,4.394-2.899,8.607-5.137,12.522
		l-56.06,98.11c-1.59,2.782-1.365,6.245,0.569,8.8c1.936,2.554,5.208,3.71,8.317,2.93L80,362.246V448
		c0,3.159,1.859,6.022,4.745,7.308c2.888,1.286,6.259,0.75,8.606-1.362l64.376-57.938l-5.679,51.109
		c-0.332,2.992,1.043,5.917,3.56,7.57c2.518,1.654,5.747,1.752,8.36,0.26l40.189-22.963l5.483,26.321
		C214.192,480.147,233.688,496,256,496s41.808-15.853,46.358-37.695l5.483-26.321l40.189,22.963c2.614,1.493,5.845,1.394,8.36-0.26
		c2.517-1.653,3.892-4.578,3.56-7.57l-5.679-51.109l64.376,57.938c1.498,1.349,3.413,2.054,5.354,2.054
		c1.1,0,2.208-0.227,3.253-0.692c2.886-1.286,4.745-4.149,4.745-7.308v-85.754l54.06,13.515c3.114,0.779,6.382-0.376,8.317-2.93
		C496.312,370.276,496.536,366.813,494.946,364.031z M428.544,32.879l-26.572,108.793c-1.976-2.93-4.035-5.802-6.18-8.605
		l11.278-57.589c0.604-3.079-0.648-6.226-3.202-8.048c-2.552-1.823-5.936-1.986-8.651-0.416l-43.611,25.205
		c-2.624-1.698-5.288-3.333-7.993-4.888L428.544,32.879z M382.504,117.667c-0.683-0.706-1.36-1.418-2.053-2.11
		c-4.605-4.611-9.497-8.985-14.619-13.081l22.154-12.804L382.504,117.667z M168.387,87.33c-2.705,1.555-5.369,3.19-7.993,4.889
		l-43.611-25.205c-2.716-1.571-6.1-1.407-8.651,0.416c-2.554,1.823-3.806,4.97-3.202,8.048l11.278,57.589
		c-2.146,2.802-4.204,5.675-6.18,8.605L83.456,32.879L168.387,87.33z M129.498,117.677l-5.484-28.005l22.157,12.806
		C140.288,107.181,134.73,112.265,129.498,117.677z M244,408c-6.617,0-12-5.383-12-12s5.383-12,12-12h24c6.617,0,12,5.383,12,12
		s-5.383,12-12,12H244z M286.694,455.042c-2.452,11.771-11.461,20.914-22.694,23.909V424h4c15.439,0,28-12.561,28-28
		s-12.561-28-28-28h-24c-15.439,0-28,12.561-28,28s12.561,28,28,28h4v54.951c-11.233-2.995-20.242-12.138-22.694-23.91
		L197.48,321.48c-4.041-19.4-21.357-33.48-41.175-33.48c-6.785,0-12.306-5.521-12.306-12.306V216.6
		c0.018-0.228,0.024-0.457,0.022-0.687c-0.284-25.927,17.845-49.081,43.106-55.054c24.334-5.754,49.775,5.5,61.871,27.365
		c1.408,2.547,4.09,4.128,7,4.128s5.592-1.581,7-4.128c12.096-21.866,37.543-33.116,61.872-27.365
		c25.261,5.974,43.39,29.127,43.105,55.054c-0.002,0.229,0.006,0.456,0.022,0.682v59.099c0,6.786-5.521,12.306-12.306,12.306
		c-19.817,0-37.134,14.081-41.175,33.48L286.694,455.042z M425.94,344.239c-2.392-0.597-4.923-0.061-6.863,1.456
		C417.135,347.21,416,349.537,416,352v78.037l-66.648-59.983c-2.467-2.222-6.051-2.687-9.006-1.17c-2.953,1.517-4.663,4.7-4.297,8
		l6.263,56.368l-31.039-17.735l18.911-90.773c2.504-12.02,13.232-20.743,25.511-20.743C371.302,304,384,291.302,384,275.694V216
		c0-0.186-0.007-0.371-0.019-0.554c0.028-15.867-5.305-31.521-15.055-44.145c-10.032-12.991-24.371-22.23-40.373-26.014
		c-27.162-6.421-55.403,3.639-72.554,24.805c-17.151-21.167-45.395-31.231-72.554-24.805c-16.002,3.784-30.341,13.022-40.373,26.014
		c-9.75,12.624-15.083,28.278-15.055,44.145C128.007,215.629,128,215.814,128,216v59.694C128,291.302,140.698,304,156.306,304
		c12.278,0,23.007,8.724,25.511,20.744l18.911,90.772l-31.039,17.735l6.263-56.368c0.366-3.3-1.344-6.483-4.297-8
		c-2.955-1.519-6.539-1.051-9.006,1.17L96,430.037V352c0-2.463-1.135-4.79-3.077-6.306c-1.942-1.517-4.473-2.053-6.863-1.456
		l-45.813,11.453l46.759-81.832c2.923-5.113,5.179-10.611,6.705-16.337C95.229,251.83,96,245.934,96,240
		c0-25.67,6.219-51.177,17.985-73.766c4.777-9.177,10.475-17.93,16.935-26.018c0.032-0.039,0.063-0.078,0.096-0.117
		c9.797-12.241,21.305-22.964,34.207-31.874c0.05-0.035,0.099-0.069,0.147-0.105c7.108-4.886,14.625-9.211,22.35-12.858
		C209.137,85.135,232.109,80,256,80s46.863,5.135,68.284,15.264c7.721,3.646,15.237,7.971,22.346,12.857
		c0.047,0.034,0.095,0.068,0.144,0.102c8.004,5.53,15.525,11.801,22.36,18.645c4.184,4.184,8.171,8.636,11.852,13.232
		c0.03,0.038,0.062,0.076,0.093,0.114c6.46,8.088,12.158,16.842,16.938,26.022C409.781,188.823,416,214.33,416,240
		c0,11.854,3.11,23.562,8.994,33.859l46.76,81.833L425.94,344.239z"></path><path d="M341.94 236.642c3.379-10.136 2.607-20.981-2.171-30.538-1.976-3.952-6.781-5.553-10.733-3.577l-57.243 28.622c-1.897.949-3.341 2.613-4.012 4.625s-.515 4.21.435 6.107c7.001 14.002 21.159 22.108 35.843 22.108 6.004 0 12.098-1.356 17.823-4.219C331.438 254.992 338.562 246.778 341.94 236.642zM314.726 245.459c-9.328 4.663-20.277 2.663-27.395-4.191l40.49-20.245c.44 3.511.092 7.104-1.06 10.56C324.734 237.664 320.46 242.592 314.726 245.459zM240.207 231.148l-57.243-28.622c-3.954-1.974-8.757-.375-10.733 3.577-4.778 9.557-5.55 20.402-2.171 30.538s10.502 18.35 20.059 23.128c5.727 2.863 11.818 4.219 17.823 4.219 14.683 0 28.842-8.107 35.843-22.108.949-1.897 1.105-4.095.435-6.107S242.104 232.097 240.207 231.148zM197.274 245.459c-5.734-2.867-10.009-7.795-12.036-13.877-1.151-3.456-1.5-7.049-1.06-10.56l40.491 20.246C217.553 248.122 206.603 250.124 197.274 245.459z"></path></svg>