<svg xmlns="http://www.w3.org/2000/svg" enable-background="new 0 0 512 512" viewBox="0 0 512 512" id="witch"><path fill="#4D5166" d="M300.293,55.805L384,88l0,0C369.755,40.517,326.051,8,276.478,8h0c-36.491,0-69.269,22.317-82.644,56.269
	L143.14,192.951c-20.62,52.344-32.506,107.719-35.182,163.914L104,440h296l-8.381-10.352
	C309.618,328.351,269.165,199.683,278.451,69.687v0C279.222,58.898,290.198,51.922,300.293,55.805z"></path><path fill="#E6C067" d="M112 128L112 128c-26.51 0-48 21.49-48 48v0 0c0-26.51-21.49-48-48-48h0 0c26.51 0 48-21.49 48-48v0 0C64 106.51 85.49 128 112 128L112 128zM456 160L456 160c-26.51 0-48 21.49-48 48v0 0c0-26.51-21.49-48-48-48h0 0c26.51 0 48-21.49 48-48v0 0C408 138.51 429.49 160 456 160L456 160zM176 256L176 256c-26.51 0-48 21.49-48 48v0 0c0-26.51-21.49-48-48-48h0 0c26.51 0 48-21.49 48-48v0 0C128 234.51 149.49 256 176 256L176 256zM480 312L480 312c-26.51 0-48 21.49-48 48v0 0c0-26.51-21.49-48-48-48h0 0c26.51 0 48-21.49 48-48v0 0C432 290.51 453.49 312 480 312L480 312z"></path><path fill="#4D5166" d="M496,488L496,488c-73.928,15.842-150.269,16.825-224.581,2.891L256,488l0,0
	c-73.928-15.842-150.269-16.825-224.58-2.891L16,488l9.91-11.351C81.386,413.104,166.207,376,256,376h0
	c89.793,0,174.614,37.104,230.09,100.649L496,488z"></path><path fill="#E65C64" d="M369.968,393.323l-54.073,18.837C242.635,437.681,155.952,442.231,80,425.349l0,0l16.023-66.97l0,0
	c75.952,16.882,138.992,12.236,212.252-13.284L344,326.145L369.968,393.323z"></path><path fill="#E6C067" d="M261.741,433.872l-95.999,11.566c-8.583,1.034-16.379-5.086-17.413-13.668l-7.738-64.229
	c-1.034-8.583,5.086-16.379,13.669-17.413l95.999-11.566c8.583-1.034,16.379,5.086,17.413,13.668l7.738,64.229
	C276.444,425.042,270.324,432.838,261.741,433.872z"></path><path fill="#973D42" d="M242.42,412.027l-63.098,7.602c-4.509,0.543-8.604-2.671-9.147-7.18l-3.774-31.328
	c-0.543-4.509,2.671-8.604,7.18-9.147l63.098-7.602c4.509-0.543,8.604,2.671,9.147,7.18l3.774,31.328
	C250.143,407.388,246.929,411.483,242.42,412.027z"></path><path fill="#2E303D" d="M144.449,407.656c-3.991,0-7.443-2.982-7.932-7.044c-0.529-4.387,2.599-8.371,6.985-8.899l47.655-5.741
		c4.38-0.535,8.371,2.599,8.899,6.985s-2.599,8.371-6.985,8.899l-47.655,5.741C145.092,407.637,144.769,407.656,144.449,407.656z"></path><path d="M16 136c22.056 0 40 17.944 40 40 0 4.418 3.582 8 8 8s8-3.582 8-8c0-22.056 17.944-40 40-40 4.418 0 8-3.582 8-8s-3.582-8-8-8c-22.056 0-40-17.944-40-40 0-4.418-3.582-8-8-8s-8 3.582-8 8c0 22.056-17.944 40-40 40-4.418 0-8 3.582-8 8S11.582 136 16 136zM64 108.82c4.73 7.847 11.333 14.45 19.18 19.18-7.848 4.729-14.45 11.333-19.18 19.18-4.73-7.847-11.333-14.45-19.18-19.18C52.667 123.271 59.27 116.667 64 108.82zM360 152c-4.418 0-8 3.582-8 8s3.582 8 8 8c22.056 0 40 17.944 40 40 0 4.418 3.582 8 8 8s8-3.582 8-8c0-22.056 17.944-40 40-40 4.418 0 8-3.582 8-8s-3.582-8-8-8c-22.056 0-40-17.944-40-40 0-4.418-3.582-8-8-8s-8 3.582-8 8C400 134.056 382.056 152 360 152zM408 140.82c4.73 7.847 11.333 14.45 19.18 19.18-7.848 4.729-14.45 11.333-19.18 19.18-4.73-7.847-11.333-14.45-19.18-19.18C396.667 155.271 403.27 148.667 408 140.82zM440 264c0-4.418-3.582-8-8-8s-8 3.582-8 8c0 22.056-17.944 40-40 40-4.418 0-8 3.582-8 8s3.582 8 8 8c22.056 0 40 17.944 40 40 0 4.418 3.582 8 8 8s8-3.582 8-8c0-22.056 17.944-40 40-40 4.418 0 8-3.582 8-8s-3.582-8-8-8C457.944 304 440 286.056 440 264zM432 331.18c-4.73-7.847-11.333-14.45-19.18-19.18 7.848-4.729 14.45-11.333 19.18-19.18 4.73 7.847 11.333 14.45 19.18 19.18C443.333 316.729 436.73 323.333 432 331.18z"></path><path d="M502.027,482.739l-9.91-11.353c-27.99-32.062-64.298-58.418-104.997-76.222c-3.112-1.362-6.258-2.662-9.427-3.915
		c-0.073-0.273-0.16-0.545-0.263-0.812l-25.968-67.178c-0.825-2.133-2.522-3.812-4.666-4.61c-2.141-0.8-4.525-0.644-6.545,0.428
		l-6.549,3.474c-9.838-20.816-18.293-42.338-25.268-64.522c-19.149-60.91-26.552-124.087-22.003-187.773
		c0.185-2.588,1.546-4.87,3.736-6.262c2.189-1.391,4.833-1.656,7.254-0.724l83.708,32.195c2.849,1.095,6.073,0.475,8.311-1.6
		c2.238-2.075,3.101-5.243,2.224-8.166c-7.487-24.958-22.495-46.371-43.4-61.926C327.357,8.222,302.535,0,276.478,0
		c-19.517,0-38.36,5.806-54.493,16.79c-16.133,10.983-28.441,26.388-35.595,44.546l-50.693,128.683
		c-1.418,3.599-2.776,7.215-4.109,10.839c-1.08-0.544-2.297-0.857-3.589-0.857c-4.418,0-8,3.582-8,8c0,22.056-17.944,40-40,40
		c-4.418,0-8,3.582-8,8s3.582,8,8,8c11.86,0,22.525,5.193,29.856,13.419c-4.937,24.245-8.162,48.846-9.603,73.687
		c-0.832-0.18-1.659-0.351-2.494-0.537c-4.27-0.948-8.5,1.7-9.516,5.948L72.22,423.488c-0.104,0.434-0.162,0.874-0.192,1.313
		c-19.401,13.558-36.995,29.232-52.145,46.586l-9.91,11.352c-2.241,2.566-2.61,6.271-0.919,9.23c1.692,2.959,5.073,4.514,8.42,3.894
		l15.419-2.892c73.657-13.811,148.156-12.851,221.43,2.851c0.067,0.015,0.134,0.028,0.202,0.041l15.42,2.892
		c35.435,6.644,71.048,9.963,106.645,9.963c40.501,0,80.979-4.301,121.086-12.896c2.771-0.594,5.021-2.609,5.915-5.298
		C504.485,487.835,503.89,484.874,502.027,482.739z M359.523,388.49l-46.26,16.115c-9.819,3.421-19.889,6.434-30.129,9.088
		l-6.101-50.635c11.089-2.948,22.349-6.395,33.874-10.41c0.384-0.134,0.757-0.297,1.117-0.487l27.764-14.727L359.523,388.49z
		 M260.784,425.93l-96,11.566c-2.031,0.238-4.033-0.316-5.641-1.578c-1.608-1.263-2.628-3.075-2.873-5.105l-2.912-24.172
		l7.943-0.957l0.93,7.721c0.991,8.226,8.008,14.283,16.095,14.283c0.645,0,1.296-0.038,1.952-0.117l63.098-7.603
		c4.302-0.519,8.145-2.681,10.82-6.09c2.675-3.408,3.863-7.654,3.345-11.957l-3.774-31.327c-1.07-8.881-9.168-15.241-18.047-14.166
		l-63.098,7.603c-4.302,0.518-8.146,2.681-10.821,6.09c-2.675,3.408-3.863,7.654-3.345,11.957l0.93,7.721l-7.943,0.957
		l-2.912-24.172c-0.244-2.029,0.316-4.033,1.578-5.641c1.262-1.608,3.075-2.628,5.105-2.873l96-11.566
		c0.312-0.037,0.622-0.056,0.931-0.056c1.704,0,3.349,0.565,4.71,1.634c1.608,1.263,2.628,3.075,2.873,5.105l7.738,64.229
		c0.244,2.029-0.316,4.033-1.578,5.641C264.627,424.665,262.814,425.685,260.784,425.93z M200.057,392.957
		c-0.529-4.387-4.52-7.521-8.899-6.985l-15.885,1.914l-0.93-7.72c-0.004-0.035-0.011-0.093,0.046-0.165
		c0.057-0.073,0.114-0.08,0.148-0.084l63.098-7.603c0.009-0.001,0.018-0.001,0.027-0.001c0.111,0,0.208,0.083,0.222,0.196
		l3.774,31.326c0.004,0.035,0.011,0.093-0.046,0.165c-0.057,0.073-0.114,0.08-0.148,0.084h0l-63.098,7.603
		c-0.124,0.009-0.234-0.073-0.249-0.195l-0.93-7.721l15.885-1.914C197.458,401.328,200.586,397.344,200.057,392.957z M128,236.82
		c4.73,7.847,11.333,14.45,19.18,19.18c-7.848,4.729-14.45,11.333-19.18,19.18c-4.73-7.847-11.333-14.45-19.18-19.18
		C116.667,251.271,123.27,244.667,128,236.82z M120.832,307.537c1.306,2.642,4.021,4.463,7.168,4.463c4.418,0,8-3.582,8-8
		c0-22.056,17.944-40,40-40c4.418,0,8-3.582,8-8s-3.582-8-8-8c-15.804,0-29.494-9.215-35.987-22.552
		c3.217-9.941,6.726-19.803,10.571-29.564l50.693-128.683C213.53,36.098,243.048,16,276.478,16c22.59,0,44.11,7.128,62.234,20.612
		c13.395,9.967,23.997,22.707,31.238,37.412l-66.785-25.687c-7.202-2.768-15.068-1.984-21.58,2.154
		c-6.513,4.139-10.563,10.928-11.113,18.624c-4.693,65.702,2.944,130.876,22.699,193.713c7.27,23.122,16.099,45.547,26.387,67.226
		l-14.489,7.686c-10.313,3.579-20.405,6.68-30.35,9.361c-3.311-10.702-13.906-17.87-25.418-16.482l-96,11.566
		c-6.272,0.756-11.875,3.909-15.776,8.879c-1.453,1.851-2.604,3.872-3.439,6.003c-5.933-0.791-11.916-1.727-17.965-2.81
		C116.963,338.576,118.537,322.992,120.832,307.537z M101.987,367.836c10.594,2.178,20.978,3.934,31.217,5.274l6.371,52.882
		c-16.861-1.276-33.564-3.494-49.883-6.77L101.987,367.836z M272.894,483.028l-15.321-2.873
		c-72.876-15.604-146.92-17.028-220.228-4.248c14.269-15.347,30.612-29.185,48.491-41.161c18.933,3.831,38.355,6.361,57.968,7.637
		c4.233,6.779,11.746,11.169,20.048,11.169c0.94,0,1.89-0.057,2.847-0.172l96-11.566c6.272-0.756,11.875-3.909,15.776-8.879
		c0.491-0.625,0.947-1.271,1.369-1.932c13.196-3.163,26.131-6.916,38.683-11.289l46.495-16.197
		c5.302,1.955,10.536,4.054,15.686,6.307c38.55,16.863,72.907,41.79,99.355,72.085l0.851,0.975
		C411.97,495.941,342.062,495.996,272.894,483.028z"></path></svg>